<mxfile host="app.diagrams.net" modified="2023-12-06T02:12:09.366Z" agent="Mozilla/5.0 (Windows NT 10.0; Win64; x64) AppleWebKit/537.36 (KHTML, like Gecko) Chrome/119.0.0.0 Safari/537.36 Edg/119.0.0.0" etag="2dn8FtLOjGFC5MVJPghF" version="22.1.5" type="device">
  <diagram name="Страница — 1" id="4zZFffurlrl-bASGn2sT">
    <mxGraphModel dx="1412" dy="737" grid="1" gridSize="10" guides="1" tooltips="1" connect="1" arrows="1" fold="1" page="1" pageScale="1" pageWidth="3300" pageHeight="2339" math="0" shadow="0">
      <root>
        <mxCell id="0" />
        <mxCell id="1" parent="0" />
        <mxCell id="2JCTQVkfjINHfoPqzNRB-1" value="&lt;font style=&quot;font-size: 14px;&quot;&gt;:StorageController&lt;/font&gt;" style="rounded=0;whiteSpace=wrap;html=1;" parent="1" vertex="1">
          <mxGeometry x="130" y="810" width="140" height="200" as="geometry" />
        </mxCell>
        <mxCell id="2JCTQVkfjINHfoPqzNRB-12" value="" style="endArrow=open;html=1;rounded=0;strokeWidth=1;jumpSize=6;startSize=4;endSize=3;endFill=0;" parent="1" edge="1">
          <mxGeometry width="50" height="50" relative="1" as="geometry">
            <mxPoint x="364.51" y="830" as="sourcePoint" />
            <mxPoint x="394.99" y="830" as="targetPoint" />
          </mxGeometry>
        </mxCell>
        <mxCell id="2JCTQVkfjINHfoPqzNRB-17" value="1:getOrder()" style="text;html=1;strokeColor=none;fillColor=none;align=center;verticalAlign=middle;whiteSpace=wrap;rounded=0;" parent="1" vertex="1">
          <mxGeometry x="355" y="800" width="60" height="30" as="geometry" />
        </mxCell>
        <mxCell id="2JCTQVkfjINHfoPqzNRB-65" value="" style="endArrow=open;html=1;rounded=0;strokeWidth=1;jumpSize=6;startSize=4;endSize=3;endFill=0;" parent="1" edge="1">
          <mxGeometry width="50" height="50" relative="1" as="geometry">
            <mxPoint x="774.98" y="929" as="sourcePoint" />
            <mxPoint x="744.98" y="929" as="targetPoint" />
          </mxGeometry>
        </mxCell>
        <mxCell id="2JCTQVkfjINHfoPqzNRB-67" value="4:OrderService.getOpenOrder&amp;nbsp; = Order" style="text;html=1;strokeColor=none;fillColor=none;align=center;verticalAlign=middle;whiteSpace=wrap;rounded=0;" parent="1" vertex="1">
          <mxGeometry x="650" y="900" width="230" height="30" as="geometry" />
        </mxCell>
        <mxCell id="Qd4PfxqZ0x4xjvN02HzD-1" value="&lt;font style=&quot;font-size: 14px;&quot;&gt;:OrderService&lt;/font&gt;" style="rounded=0;whiteSpace=wrap;html=1;" vertex="1" parent="1">
          <mxGeometry x="510" y="810" width="140" height="200" as="geometry" />
        </mxCell>
        <mxCell id="Qd4PfxqZ0x4xjvN02HzD-2" value="" style="endArrow=open;html=1;rounded=0;strokeWidth=1;jumpSize=6;startSize=4;endSize=3;endFill=0;" edge="1" parent="1">
          <mxGeometry width="50" height="50" relative="1" as="geometry">
            <mxPoint x="744.51" y="809.52" as="sourcePoint" />
            <mxPoint x="774.99" y="809.52" as="targetPoint" />
          </mxGeometry>
        </mxCell>
        <mxCell id="Qd4PfxqZ0x4xjvN02HzD-3" value="2:getOpenOrder()" style="text;html=1;strokeColor=none;fillColor=none;align=center;verticalAlign=middle;whiteSpace=wrap;rounded=0;" vertex="1" parent="1">
          <mxGeometry x="735" y="779.52" width="60" height="30" as="geometry" />
        </mxCell>
        <mxCell id="Qd4PfxqZ0x4xjvN02HzD-4" value="&lt;font style=&quot;font-size: 14px;&quot;&gt;:PostgresOrderRepo&lt;/font&gt;" style="rounded=0;whiteSpace=wrap;html=1;" vertex="1" parent="1">
          <mxGeometry x="890" y="810" width="140" height="200" as="geometry" />
        </mxCell>
        <mxCell id="Qd4PfxqZ0x4xjvN02HzD-5" value="" style="endArrow=open;html=1;rounded=0;strokeWidth=1;jumpSize=6;startSize=4;endSize=3;endFill=0;" edge="1" parent="1">
          <mxGeometry width="50" height="50" relative="1" as="geometry">
            <mxPoint x="1089.51" y="770" as="sourcePoint" />
            <mxPoint x="1119.99" y="770" as="targetPoint" />
          </mxGeometry>
        </mxCell>
        <mxCell id="Qd4PfxqZ0x4xjvN02HzD-6" value="3:getOpenOrder()" style="text;html=1;strokeColor=none;fillColor=none;align=center;verticalAlign=middle;whiteSpace=wrap;rounded=0;" vertex="1" parent="1">
          <mxGeometry x="1080" y="740" width="60" height="30" as="geometry" />
        </mxCell>
        <mxCell id="Qd4PfxqZ0x4xjvN02HzD-7" value="" style="endArrow=open;html=1;rounded=0;strokeWidth=1;jumpSize=6;startSize=4;endSize=3;endFill=0;" edge="1" parent="1">
          <mxGeometry width="50" height="50" relative="1" as="geometry">
            <mxPoint x="390" y="980" as="sourcePoint" />
            <mxPoint x="360" y="980" as="targetPoint" />
          </mxGeometry>
        </mxCell>
        <mxCell id="Qd4PfxqZ0x4xjvN02HzD-8" value="5:StorageController.getOrder&amp;nbsp; = Order" style="text;html=1;strokeColor=none;fillColor=none;align=center;verticalAlign=middle;whiteSpace=wrap;rounded=0;" vertex="1" parent="1">
          <mxGeometry x="270" y="949.9999999999999" width="230" height="30" as="geometry" />
        </mxCell>
        <mxCell id="Qd4PfxqZ0x4xjvN02HzD-9" value="" style="endArrow=open;html=1;rounded=0;strokeWidth=1;jumpSize=6;startSize=4;endSize=3;endFill=0;" edge="1" parent="1">
          <mxGeometry width="50" height="50" relative="1" as="geometry">
            <mxPoint x="364.51" y="880" as="sourcePoint" />
            <mxPoint x="394.99" y="880" as="targetPoint" />
          </mxGeometry>
        </mxCell>
        <mxCell id="Qd4PfxqZ0x4xjvN02HzD-10" value="6.1:changeOrder()" style="text;html=1;strokeColor=none;fillColor=none;align=center;verticalAlign=middle;whiteSpace=wrap;rounded=0;" vertex="1" parent="1">
          <mxGeometry x="355" y="850" width="60" height="30" as="geometry" />
        </mxCell>
        <mxCell id="Qd4PfxqZ0x4xjvN02HzD-11" value="" style="endArrow=open;html=1;rounded=0;strokeWidth=1;jumpSize=6;startSize=4;endSize=3;endFill=0;" edge="1" parent="1">
          <mxGeometry width="50" height="50" relative="1" as="geometry">
            <mxPoint x="744.51" y="849.52" as="sourcePoint" />
            <mxPoint x="774.99" y="849.52" as="targetPoint" />
          </mxGeometry>
        </mxCell>
        <mxCell id="Qd4PfxqZ0x4xjvN02HzD-12" value="6.2:changeOrder()" style="text;html=1;strokeColor=none;fillColor=none;align=center;verticalAlign=middle;whiteSpace=wrap;rounded=0;" vertex="1" parent="1">
          <mxGeometry x="735" y="819.52" width="60" height="30" as="geometry" />
        </mxCell>
        <mxCell id="Qd4PfxqZ0x4xjvN02HzD-13" value="" style="endArrow=open;html=1;rounded=0;strokeWidth=1;jumpSize=6;startSize=4;endSize=3;endFill=0;" edge="1" parent="1">
          <mxGeometry width="50" height="50" relative="1" as="geometry">
            <mxPoint x="1089.51" y="809.52" as="sourcePoint" />
            <mxPoint x="1119.99" y="809.52" as="targetPoint" />
          </mxGeometry>
        </mxCell>
        <mxCell id="Qd4PfxqZ0x4xjvN02HzD-14" value="6.3:updateOrder()" style="text;html=1;strokeColor=none;fillColor=none;align=center;verticalAlign=middle;whiteSpace=wrap;rounded=0;" vertex="1" parent="1">
          <mxGeometry x="1080" y="779.52" width="60" height="30" as="geometry" />
        </mxCell>
        <mxCell id="Qd4PfxqZ0x4xjvN02HzD-15" value="" style="endArrow=open;html=1;rounded=0;strokeWidth=1;jumpSize=6;startSize=4;endSize=3;endFill=0;" edge="1" parent="1">
          <mxGeometry width="50" height="50" relative="1" as="geometry">
            <mxPoint x="774.98" y="969" as="sourcePoint" />
            <mxPoint x="744.98" y="969" as="targetPoint" />
          </mxGeometry>
        </mxCell>
        <mxCell id="Qd4PfxqZ0x4xjvN02HzD-16" value="6.4:OrderService.changeOrder&amp;nbsp; = Order" style="text;html=1;strokeColor=none;fillColor=none;align=center;verticalAlign=middle;whiteSpace=wrap;rounded=0;" vertex="1" parent="1">
          <mxGeometry x="650" y="940" width="230" height="30" as="geometry" />
        </mxCell>
        <mxCell id="Qd4PfxqZ0x4xjvN02HzD-19" value="" style="endArrow=open;html=1;rounded=0;strokeWidth=1;jumpSize=6;startSize=4;endSize=3;endFill=0;" edge="1" parent="1">
          <mxGeometry width="50" height="50" relative="1" as="geometry">
            <mxPoint x="364.51" y="930" as="sourcePoint" />
            <mxPoint x="394.99" y="930" as="targetPoint" />
          </mxGeometry>
        </mxCell>
        <mxCell id="Qd4PfxqZ0x4xjvN02HzD-20" value="7.1:submitOrder()" style="text;html=1;strokeColor=none;fillColor=none;align=center;verticalAlign=middle;whiteSpace=wrap;rounded=0;" vertex="1" parent="1">
          <mxGeometry x="355" y="900" width="60" height="30" as="geometry" />
        </mxCell>
        <mxCell id="Qd4PfxqZ0x4xjvN02HzD-21" value="" style="endArrow=open;html=1;rounded=0;strokeWidth=1;jumpSize=6;startSize=4;endSize=3;endFill=0;" edge="1" parent="1">
          <mxGeometry width="50" height="50" relative="1" as="geometry">
            <mxPoint x="744.51" y="895" as="sourcePoint" />
            <mxPoint x="774.99" y="895" as="targetPoint" />
          </mxGeometry>
        </mxCell>
        <mxCell id="Qd4PfxqZ0x4xjvN02HzD-22" value="7.2:submitOrder()" style="text;html=1;strokeColor=none;fillColor=none;align=center;verticalAlign=middle;whiteSpace=wrap;rounded=0;" vertex="1" parent="1">
          <mxGeometry x="735" y="866" width="60" height="30" as="geometry" />
        </mxCell>
        <mxCell id="Qd4PfxqZ0x4xjvN02HzD-23" value="" style="endArrow=open;html=1;rounded=0;strokeWidth=1;jumpSize=6;startSize=4;endSize=3;endFill=0;" edge="1" parent="1">
          <mxGeometry width="50" height="50" relative="1" as="geometry">
            <mxPoint x="1089.51" y="849.52" as="sourcePoint" />
            <mxPoint x="1119.99" y="849.52" as="targetPoint" />
          </mxGeometry>
        </mxCell>
        <mxCell id="Qd4PfxqZ0x4xjvN02HzD-24" value="7.3:completeOrder()" style="text;html=1;strokeColor=none;fillColor=none;align=center;verticalAlign=middle;whiteSpace=wrap;rounded=0;" vertex="1" parent="1">
          <mxGeometry x="1080" y="819.52" width="60" height="30" as="geometry" />
        </mxCell>
        <mxCell id="Qd4PfxqZ0x4xjvN02HzD-30" value="" style="endArrow=none;html=1;rounded=0;exitX=1;exitY=0.134;exitDx=0;exitDy=0;exitPerimeter=0;entryX=0.007;entryY=0.144;entryDx=0;entryDy=0;entryPerimeter=0;" edge="1" parent="1" source="2JCTQVkfjINHfoPqzNRB-1" target="Qd4PfxqZ0x4xjvN02HzD-1">
          <mxGeometry width="50" height="50" relative="1" as="geometry">
            <mxPoint x="690" y="930" as="sourcePoint" />
            <mxPoint x="740" y="880" as="targetPoint" />
          </mxGeometry>
        </mxCell>
        <mxCell id="Qd4PfxqZ0x4xjvN02HzD-31" value="" style="endArrow=none;html=1;rounded=0;exitX=1;exitY=0.134;exitDx=0;exitDy=0;exitPerimeter=0;entryX=0.007;entryY=0.144;entryDx=0;entryDy=0;entryPerimeter=0;" edge="1" parent="1">
          <mxGeometry width="50" height="50" relative="1" as="geometry">
            <mxPoint x="269" y="890" as="sourcePoint" />
            <mxPoint x="510" y="892" as="targetPoint" />
          </mxGeometry>
        </mxCell>
        <mxCell id="Qd4PfxqZ0x4xjvN02HzD-32" value="" style="endArrow=none;html=1;rounded=0;exitX=1;exitY=0.134;exitDx=0;exitDy=0;exitPerimeter=0;entryX=0.007;entryY=0.144;entryDx=0;entryDy=0;entryPerimeter=0;fontStyle=1" edge="1" parent="1">
          <mxGeometry width="50" height="50" relative="1" as="geometry">
            <mxPoint x="269" y="940" as="sourcePoint" />
            <mxPoint x="510" y="942" as="targetPoint" />
          </mxGeometry>
        </mxCell>
        <mxCell id="Qd4PfxqZ0x4xjvN02HzD-33" value="" style="endArrow=none;html=1;rounded=0;exitX=1;exitY=0.134;exitDx=0;exitDy=0;exitPerimeter=0;entryX=0.007;entryY=0.144;entryDx=0;entryDy=0;entryPerimeter=0;fontStyle=1" edge="1" parent="1">
          <mxGeometry width="50" height="50" relative="1" as="geometry">
            <mxPoint x="269" y="990" as="sourcePoint" />
            <mxPoint x="510" y="992" as="targetPoint" />
          </mxGeometry>
        </mxCell>
        <mxCell id="Qd4PfxqZ0x4xjvN02HzD-34" value="" style="endArrow=none;html=1;rounded=0;exitX=1.003;exitY=0.038;exitDx=0;exitDy=0;exitPerimeter=0;entryX=0.004;entryY=0.041;entryDx=0;entryDy=0;entryPerimeter=0;" edge="1" parent="1" source="Qd4PfxqZ0x4xjvN02HzD-1" target="Qd4PfxqZ0x4xjvN02HzD-4">
          <mxGeometry width="50" height="50" relative="1" as="geometry">
            <mxPoint x="670" y="850" as="sourcePoint" />
            <mxPoint x="720" y="800" as="targetPoint" />
          </mxGeometry>
        </mxCell>
        <mxCell id="Qd4PfxqZ0x4xjvN02HzD-35" value="" style="endArrow=none;html=1;rounded=0;exitX=1.003;exitY=0.038;exitDx=0;exitDy=0;exitPerimeter=0;entryX=0.004;entryY=0.041;entryDx=0;entryDy=0;entryPerimeter=0;" edge="1" parent="1">
          <mxGeometry width="50" height="50" relative="1" as="geometry">
            <mxPoint x="650" y="860" as="sourcePoint" />
            <mxPoint x="891" y="860" as="targetPoint" />
          </mxGeometry>
        </mxCell>
        <mxCell id="Qd4PfxqZ0x4xjvN02HzD-36" value="" style="endArrow=none;html=1;rounded=0;exitX=1.003;exitY=0.038;exitDx=0;exitDy=0;exitPerimeter=0;entryX=0.004;entryY=0.041;entryDx=0;entryDy=0;entryPerimeter=0;" edge="1" parent="1">
          <mxGeometry width="50" height="50" relative="1" as="geometry">
            <mxPoint x="649" y="900" as="sourcePoint" />
            <mxPoint x="890" y="900" as="targetPoint" />
          </mxGeometry>
        </mxCell>
        <mxCell id="Qd4PfxqZ0x4xjvN02HzD-37" value="" style="endArrow=none;html=1;rounded=0;exitX=1.003;exitY=0.038;exitDx=0;exitDy=0;exitPerimeter=0;entryX=0.004;entryY=0.041;entryDx=0;entryDy=0;entryPerimeter=0;" edge="1" parent="1">
          <mxGeometry width="50" height="50" relative="1" as="geometry">
            <mxPoint x="649" y="940" as="sourcePoint" />
            <mxPoint x="890" y="940" as="targetPoint" />
          </mxGeometry>
        </mxCell>
        <mxCell id="Qd4PfxqZ0x4xjvN02HzD-38" value="" style="endArrow=none;html=1;rounded=0;exitX=1.003;exitY=0.038;exitDx=0;exitDy=0;exitPerimeter=0;entryX=0.004;entryY=0.041;entryDx=0;entryDy=0;entryPerimeter=0;" edge="1" parent="1">
          <mxGeometry width="50" height="50" relative="1" as="geometry">
            <mxPoint x="649" y="980" as="sourcePoint" />
            <mxPoint x="890" y="980" as="targetPoint" />
          </mxGeometry>
        </mxCell>
        <mxCell id="Qd4PfxqZ0x4xjvN02HzD-39" style="edgeStyle=orthogonalEdgeStyle;rounded=0;orthogonalLoop=1;jettySize=auto;html=1;exitX=1;exitY=0.25;exitDx=0;exitDy=0;entryX=1;entryY=0.75;entryDx=0;entryDy=0;endArrow=none;endFill=0;" edge="1" parent="1" source="Qd4PfxqZ0x4xjvN02HzD-4" target="Qd4PfxqZ0x4xjvN02HzD-4">
          <mxGeometry relative="1" as="geometry">
            <Array as="points">
              <mxPoint x="1190" y="860" />
              <mxPoint x="1190" y="960" />
            </Array>
          </mxGeometry>
        </mxCell>
      </root>
    </mxGraphModel>
  </diagram>
</mxfile>
